# xmcd
#
# Track frame offsets:
#	150
#	11909
#	22472
#	33535
#	44610
#	56614
#	71058
#	83493
#	95971
#	109046
#	120527
#	131842
#	143645
#	156188
#	169376
#	181638
#	193291
#	204057
#	217771
#	228186
#
# Disc length: 3214 seconds
#
# Revision: 0
# Processed by: cddbd v1.5.2PL0 Copyright (c) Steve Scherf et al.
# Submitted via: audiograbber 1.83.01
#
DISCID=1f0c8c14
DTITLE=Various Artist - Country and Western - 200 No.1 - Hits (1944-1962) - CD6
DYEAR=2017
DGENRE=Country
TTITLE0=Goldie Hill - I Let The Stars Get In My Eyes (1953)
TTITLE1=Eddy Arnold - Eddy's Song (1953)
TTITLE2=The Carlisles - No Help Wanted (1953)
TTITLE3=Hank Williams - I'll Never Get Out Of This World Alive (1953)
TTITLE4=Marty Robbins - I'll Go On Alone (1953)
TTITLE5=Red Foley - Midnight (1953)
TTITLE6=Skeets McDonald - Don't Let The Stars Get In Your Eyes (1952)
TTITLE7=Webb Pierce - Back Street Affair (1952)
TTITLE8=Hank Williams - Jambalaya (1952)
TTITLE9=Kitty Wells - It Wasn't God Who Made Honky Tonk Angels (1952)
TTITLE10=Eddy Arnold - A Full Time Job (1952)
TTITLE11=Carl Smith - Are You Teasing Me (1952)
TTITLE12=Slim Willet - Don't Let The Stars Get In Your Eyes (1952)
TTITLE13=Webb Pierce - That Heart Belongs To Me (1952)
TTITLE14=Hank Thompson - The Wild Side Of Life (1952)
TTITLE15=Eddy Arnold - Easy On The Eyes (1952)
TTITLE16=Carl Smith - (When You Feel Like You're In Love) Don't Just Stand Ther
TTITLE16=e (1952)
TTITLE17=Webb Pierce - Wondering (1952)
TTITLE18=Lefty Frizzell - Give Me More, More, More (Of Your Kisses) (1952)
TTITLE19=Carl Smith - Let Old Mother Nature Have Her Way (1951)
EXTD=
EXTT0=
EXTT1=
EXTT2=
EXTT3=
EXTT4=
EXTT5=
EXTT6=
EXTT7=
EXTT8=
EXTT9=
EXTT10=
EXTT11=
EXTT12=
EXTT13=
EXTT14=
EXTT15=
EXTT16=
EXTT17=
EXTT18=
EXTT19=
PLAYORDER=
